<svg xmlns="http://www.w3.org/2000/svg" xmlns:xlink="http://www.w3.org/1999/xlink" width="500" zoomAndPan="magnify" viewBox="0 0 375 374.999991" height="500" preserveAspectRatio="xMidYMid meet" version="1.0"><defs><clipPath id="3ff46918ff"><path d="M 22.261719 9.050781 L 193 9.050781 L 193 366 L 22.261719 366 Z M 22.261719 9.050781 " clip-rule="nonzero"/></clipPath><clipPath id="ca0dd2c9bc"><path d="M 226 9.050781 L 340 9.050781 L 340 117 L 226 117 Z M 226 9.050781 " clip-rule="nonzero"/></clipPath></defs><g clip-path="url(#3ff46918ff)"><path fill="#f4f6fc" d="M 131.457031 24.519531 C 112.804688 32.703125 95.765625 43.738281 80.804688 57.308594 C 50.578125 84.722656 30.550781 121.457031 24.429688 160.722656 C 23.054688 169.496094 22.359375 178.492188 22.359375 187.46875 C 22.359375 201.007812 23.941406 214.503906 27.066406 227.597656 C 35.832031 264.34375 56.160156 297.007812 85.847656 322.042969 C 115.785156 347.292969 152.539062 362.441406 192.128906 365.839844 L 192.757812 365.894531 L 192.757812 296.109375 L 192.273438 296.027344 C 154.789062 289.601562 123.148438 263.59375 109.507812 228.046875 L 192.757812 228.046875 L 192.757812 160.242188 L 106.257812 160.242188 C 117.394531 119.972656 151.082031 89.460938 192.265625 82.40625 L 192.75 82.324219 L 192.75 9.050781 L 192.121094 9.109375 C 171.054688 10.917969 150.640625 16.105469 131.457031 24.519531 Z M 131.457031 24.519531 " fill-opacity="1" fill-rule="nonzero"/></g><path fill="#233dff" d="M 352.128906 160.234375 L 226.945312 160.234375 L 226.945312 228.039062 L 280.84375 228.039062 L 280.84375 271.851562 C 265.597656 284.804688 247.132812 293.261719 227.433594 296.304688 L 226.945312 296.378906 L 226.945312 365.730469 L 227.574219 365.675781 C 247.96875 363.742188 266.351562 359.496094 282.210938 353.054688 C 307.175781 342.921875 332.980469 332.445312 352.554688 310.070312 L 352.703125 309.90625 Z M 352.128906 160.234375 " fill-opacity="1" fill-rule="nonzero"/><g clip-path="url(#ca0dd2c9bc)"><path fill="#233dff" d="M 281.050781 106.738281 C 284.511719 109.703125 287.84375 112.925781 290.9375 116.324219 L 291.386719 116.816406 L 339.214844 59.207031 L 338.816406 58.828125 C 322.160156 43.34375 302.925781 31.117188 281.640625 22.472656 C 264.417969 15.484375 246.234375 11.039062 227.574219 9.273438 L 226.945312 9.214844 L 226.945312 82.046875 L 227.433594 82.121094 C 247.214844 85.175781 265.761719 93.695312 281.050781 106.738281 Z M 281.050781 106.738281 " fill-opacity="1" fill-rule="nonzero"/></g></svg>